<svg id="undraw_Questions_re_1fy7" xmlns="http://www.w3.org/2000/svg" width="174.809" height="136.442" viewBox="0 0 174.809 136.442">
  <ellipse id="Ellipse_32" data-name="Ellipse 32" cx="9.52" cy="10.544" rx="9.52" ry="10.544" transform="translate(79.758 115.065)" fill="#6c63ff"/>
  <path id="Path_252" data-name="Path 252" d="M421.876,324.077c5.326-1.772,10.988-3.619,15.212-7.83,3.774-3.763,6.322-9.51,4.759-15.154s-6.234-9.388-11.06-11.256a41.659,41.659,0,0,0-8.463-2.109c-3.112-.5-6.237-.913-9.361-1.309q-18.973-2.4-38.089-2.936c-6.288-.175-12.575-.171-18.864-.07-5.617.09-11.532.088-16.742-2.556a16.565,16.565,0,0,1-8.858-10.712c-1.3-5.674,1.1-11.452,4.549-15.562a38,38,0,0,1,6.133-5.666c2.377-1.819,4.838-3.508,7.351-5.086a98.012,98.012,0,0,1,15.473-7.9c2.638-1.062,5.315-1.979,8.015-2.824a63.9,63.9,0,0,0,6.771-2.4c4.26-1.88,8.311-5.066,9.395-10.287a17.254,17.254,0,0,0-3.739-14c-3.511-4.254-8.8-6.118-13.878-6.42-5.7-.339-11.263,1.24-16.618,3.245-5.711,2.138-11.3,4.6-17.131,6.327A105.285,105.285,0,0,1,319.1,213.2a43.234,43.234,0,0,1-8.849.469,10.156,10.156,0,0,1-6.712-2.952,7.8,7.8,0,0,1-2.16-6.334c.058-.436.656-.251.6.183a7.421,7.421,0,0,0,3.618,7c2.556,1.595,5.665,1.6,8.51,1.415a101.234,101.234,0,0,0,18.318-2.933,136.893,136.893,0,0,0,17.323-5.923c5.413-2.171,10.947-4.29,16.73-4.76a22.97,22.97,0,0,1,14.668,3.306,18,18,0,0,1,7.567,11.694,14.5,14.5,0,0,1-3.6,12.909c-3.378,3.449-8.009,4.923-12.325,6.281a105.939,105.939,0,0,0-16.017,6.35,98.31,98.31,0,0,0-15.066,9.381c-4.6,3.485-9.148,7.869-10.6,14.085a14.273,14.273,0,0,0,.582,8.7,15.612,15.612,0,0,0,4.607,6.055c4.619,3.765,10.441,4.538,16.021,4.615,6.267.086,12.534-.148,18.8-.034q19.164.348,38.249,2.584,4.782.561,9.552,1.239a78.674,78.674,0,0,1,8.543,1.535c5,1.285,9.866,3.757,12.974,8.453A14.955,14.955,0,0,1,442.9,303.5a15.42,15.42,0,0,1-1.445,7.638c-2.387,5.2-6.857,8.509-11.6,10.682a76.954,76.954,0,0,1-7.813,2.922c-.383.128-.547-.536-.165-.663Z" transform="translate(-275.726 -188.516)" fill="#f2f2f2"/>
  <ellipse id="Ellipse_33" data-name="Ellipse 33" cx="4.967" cy="5.501" rx="4.967" ry="5.501" transform="translate(21.087 10.429)" fill="#f2f2f2"/>
  <ellipse id="Ellipse_34" data-name="Ellipse 34" cx="4.967" cy="5.501" rx="4.967" ry="5.501" transform="translate(55.545 20.858)" fill="#f2f2f2"/>
  <ellipse id="Ellipse_35" data-name="Ellipse 35" cx="4.967" cy="5.501" rx="4.967" ry="5.501" transform="translate(84.725)" fill="#f2f2f2"/>
  <ellipse id="Ellipse_36" data-name="Ellipse 36" cx="4.967" cy="5.501" rx="4.967" ry="5.501" transform="translate(102.937 23.38)" fill="#f2f2f2"/>
  <ellipse id="Ellipse_37" data-name="Ellipse 37" cx="4.967" cy="5.501" rx="4.967" ry="5.501" transform="translate(78.31 50.427)" fill="#f2f2f2"/>
  <ellipse id="Ellipse_38" data-name="Ellipse 38" cx="4.967" cy="5.501" rx="4.967" ry="5.501" transform="translate(47.06 63.492)" fill="#f2f2f2"/>
  <ellipse id="Ellipse_39" data-name="Ellipse 39" cx="4.967" cy="5.501" rx="4.967" ry="5.501" transform="translate(80.172 83.892)" fill="#f2f2f2"/>
  <ellipse id="Ellipse_40" data-name="Ellipse 40" cx="4.967" cy="5.501" rx="4.967" ry="5.501" transform="translate(115.768 95.353)" fill="#f2f2f2"/>
  <ellipse id="Ellipse_41" data-name="Ellipse 41" cx="4.967" cy="5.501" rx="4.967" ry="5.501" transform="translate(157.366 92.832)" fill="#f2f2f2"/>
  <path id="Path_253" data-name="Path 253" d="M499.612,220.37c-14.878.116-27.06,13.508-27.272,29.985,0,.152,0,1.222,0,2.621,0,4.271,3.126,7.734,6.983,7.735h0c3.86,0,6.989-3.468,6.987-7.745,0-.953,0-1.612,0-1.653,0-7.038,4.509-13.082,10.746-14.409s12.445,2.434,14.8,8.967.191,14-5.157,17.792l0,0s-9.94,7.087-12.97,16.81h0a23.708,23.708,0,0,0-.8,6.136c0,.854.045,8.325.133,14.39.064,4.353,3.269,7.845,7.2,7.844h0a6.868,6.868,0,0,0,5.107-2.353,8.439,8.439,0,0,0,2.093-5.672c-.03-5.554-.047-12.02-.047-12.49,0-5.97,5.2-11.918,9.471-15.8a32.425,32.425,0,0,0,9.879-17.42,21.91,21.91,0,0,0,.517-4.317,32.153,32.153,0,0,0-8.117-21.593A26.163,26.163,0,0,0,499.612,220.37Z" transform="translate(-411.354 -204.783)" fill="#6c63ff"/>
  <path id="Path_254" data-name="Path 254" d="M352.225,745.8H177.909a.274.274,0,0,1,0-.546H352.224a.274.274,0,0,1,0,.546Z" transform="translate(-177.662 -609.353)" fill="#3f3d56"/>
  <ellipse id="Ellipse_42" data-name="Ellipse 42" cx="6.209" cy="6.876" rx="6.209" ry="6.876" transform="translate(123.851 48.822)" fill="#2f2e41"/>
  <path id="Path_255" data-name="Path 255" d="M558.664,545.68h-2.537l-1.207-10.839h3.745Z" transform="translate(-440.077 -412.248)" fill="#a0616a"/>
  <path id="Path_256" data-name="Path 256" d="M540.19,578.626h4.893v3.412h-7.974A3.259,3.259,0,0,1,540.19,578.626Z" transform="translate(-425.952 -445.997)" fill="#2f2e41"/>
  <path id="Path_257" data-name="Path 257" d="M653.664,545.68h-2.537l-1.207-10.839h3.745Z" transform="translate(-515.417 -412.248)" fill="#a0616a"/>
  <path id="Path_258" data-name="Path 258" d="M635.19,578.626h4.893v3.412h-7.974A3.259,3.259,0,0,1,635.19,578.626Z" transform="translate(-501.292 -445.997)" fill="#2f2e41"/>
  <ellipse id="Ellipse_43" data-name="Ellipse 43" cx="5.083" cy="5.63" rx="5.083" ry="5.63" transform="translate(124.033 51.355)" fill="#a0616a"/>
  <path id="Path_259" data-name="Path 259" d="M746.549,450.751l2.274-5.788a7.759,7.759,0,0,0-1.438-8.16,6.862,6.862,0,0,0-.635-.612,6.019,6.019,0,0,0-3.93-1.506,6.125,6.125,0,0,0-2.773.683c-.075.037-.147.076-.222.115-.143.076-.283.158-.42.243a7.342,7.342,0,0,0-3.249,5.474l-1,9.315c-.252.731-9.259,27.137-6.109,47.3a.974.974,0,0,0,.791.841l3.193.481a.944.944,0,0,0,1.037-.809l5.358-28.287a.75.75,0,0,1,.685-.637.737.737,0,0,1,.722.585l7.57,29.747a.9.9,0,0,0,1.072.733l3.9-.832a1.013,1.013,0,0,0,.751-1.1C753.551,491.45,750.5,455.984,746.549,450.751Z" transform="translate(-614.404 -369.974)" fill="#2f2e41"/>
  <path id="Path_260" data-name="Path 260" d="M706.048,414.479a2.465,2.465,0,0,0,.555,1.851,1.98,1.98,0,0,0,1.638.717l2.841,7.562,2.149-3.529-3.028-6.64a2.078,2.078,0,0,0-4.155.039Z" transform="translate(-596.686 -352.809)" fill="#a0616a"/>
  <path id="Path_261" data-name="Path 261" d="M791.168,506.807a2.067,2.067,0,0,0,1.5-1.029,2.518,2.518,0,0,0,.248-1.931l5.978-4.822-3.6-1.493-5.125,4.808a2.378,2.378,0,0,0-1.29,2.726A2.114,2.114,0,0,0,791.168,506.807Z" transform="translate(-662.333 -418.416)" fill="#a0616a"/>
  <path id="Path_262" data-name="Path 262" d="M724.948,449.672a3.2,3.2,0,0,1-.683-.075,3.468,3.468,0,0,1-2.473-2.2l-3.98-5.376a1.114,1.114,0,0,1-.2-.823,1.042,1.042,0,0,1,.429-.708l2.832-1.942a.855.855,0,0,1,.707-.126.943.943,0,0,1,.579.468l2.806,5.119,5.373-4.4a1.893,1.893,0,0,1,2.562.663,2.408,2.408,0,0,1-.221,2.9l-5.363,5.418a3.2,3.2,0,0,1-2.369,1.079Z" transform="translate(-605.859 -372.83)" fill="#2f2e41"/>
  <path id="Path_263" data-name="Path 263" d="M810.035,463.41h-.022a.9.9,0,0,1-.685-.36L806.81,459.8a1.109,1.109,0,0,1-.216-.812,1.05,1.05,0,0,1,.406-.717l4.715-3.481-4.271-5.687a2.4,2.4,0,0,1,.451-2.871,1.867,1.867,0,0,1,2.63.078l5.191,5.619a4.026,4.026,0,0,1,1.082,3.308,3.793,3.793,0,0,1-1.843,2.867l-4.243,4.986A.893.893,0,0,1,810.035,463.41Z" transform="translate(-676.428 -378.483)" fill="#2f2e41"/>
  <path id="Path_264" data-name="Path 264" d="M784.532,440.987a.861.861,0,0,1-.121-.008.953.953,0,0,1-.768-.7l-1.892-6.425a.736.736,0,0,1,.33-.854l.061-.032c.056-.029.111-.058.167-.086a6.2,6.2,0,0,1,2.815-.693,6.042,6.042,0,0,1,3.552,1.182.766.766,0,0,1,.187.984l-3.549,6.158A.9.9,0,0,1,784.532,440.987Z" transform="translate(-656.708 -368.048)" fill="#e6e6e6"/>
  <ellipse id="Ellipse_44" data-name="Ellipse 44" cx="2.032" cy="2.25" rx="2.032" ry="2.25" transform="translate(132.923 48.128)" fill="#2f2e41"/>
  <path id="Path_265" data-name="Path 265" d="M775.492,361.365h0a5.693,5.693,0,0,0-5.381,5.96v2.521h2.8l1.339-2.521.4,2.521h8.5l-2.276-2.521A5.692,5.692,0,0,0,775.492,361.365Z" transform="translate(-647.502 -313.46)" fill="#2f2e41"/>
  <path id="Path_266" data-name="Path 266" d="M834.809,357.31a3.137,3.137,0,0,1,3.411-2.383,4.478,4.478,0,0,1,2.928,2.68,28.348,28.348,0,0,1,1.3,4.109,7.608,7.608,0,0,0,2.027,3.664,2.788,2.788,0,0,0,3.64.217,4.441,4.441,0,0,1-3.343,3.916,4.036,4.036,0,0,1-4.413-2.27,10.83,10.83,0,0,1-.834-3.5,8.22,8.22,0,0,0-1.006-3.425,2.441,2.441,0,0,0-2.857-1.178Z" transform="translate(-698.81 -308.473)" fill="#2f2e41"/>
  <path id="Path_267" data-name="Path 267" d="M480.918,299.407h0c-3.856,0-6.983-3.462-6.984-7.734,0-1.4,0-2.47,0-2.622a32.739,32.739,0,0,1,3.179-13.732,32.413,32.413,0,0,0-5.248,17.4c0,.152,0,1.222,0,2.621,0,4.271,3.126,7.734,6.983,7.735h0a7.136,7.136,0,0,0,6.724-5.637A6.59,6.59,0,0,1,480.918,299.407Z" transform="translate(-410.979 -247.137)" fill="#3f3d56"/>
  <path id="Path_268" data-name="Path 268" d="M565.361,279.089a13.083,13.083,0,0,1,10.613,6.9,16.054,16.054,0,0,1,.906,13.594,15.936,15.936,0,0,0,1.9-15.763,13.2,13.2,0,0,0-12.183-8.414c-5.2.088-9.873,3.539-11.945,8.823A12.671,12.671,0,0,1,565.361,279.089Z" transform="translate(-476.63 -247.203)" fill="#3f3d56"/>
  <path id="Path_269" data-name="Path 269" d="M580.767,485.217h0c-3.933,0-7.137-3.493-7.2-7.846-.088-6.062-.133-13.534-.133-14.388a23.705,23.705,0,0,1,.8-6.136h0a23.077,23.077,0,0,1,1.137-2.911,26.192,26.192,0,0,0-3.207,6.579h0a23.708,23.708,0,0,0-.8,6.136c0,.854.045,8.325.133,14.389.064,4.353,3.269,7.845,7.2,7.844h0a7.344,7.344,0,0,0,6.912-5.74A6.8,6.8,0,0,1,580.767,485.217Z" transform="translate(-489.886 -384.813)" fill="#3f3d56"/>
  <path id="Path_270" data-name="Path 270" d="M126.539,546.135h2.537l1.207-10.839h-3.745Z" transform="translate(-100.351 -412.599)" fill="#ffb8b8"/>
  <path id="Path_271" data-name="Path 271" d="M0,0H7.974V3.412H3.081A3.259,3.259,0,0,1,0,0Z" transform="translate(33.618 136.146) rotate(179.997)" fill="#2f2e41"/>
  <path id="Path_272" data-name="Path 272" d="M82.539,546.135h2.537L86.283,535.3H82.538Z" transform="translate(-65.456 -412.599)" fill="#ffb8b8"/>
  <path id="Path_273" data-name="Path 273" d="M0,0H7.974V3.412H3.081A3.259,3.259,0,0,1,0,0Z" transform="translate(24.512 136.146) rotate(179.997)" fill="#2f2e41"/>
  <path id="Path_274" data-name="Path 274" d="M257.909,593.954l-2.478-.144a.934.934,0,0,1-.672-.358,1.145,1.145,0,0,1-.243-.781l2.962-36.323,13.641,4.077,1.314-.4-4.11,32.155a1.016,1.016,0,0,1-.9.9l-2.672.138a.916.916,0,0,1-.728-.3,1.133,1.133,0,0,1-.293-.8l.484-19.3a.347.347,0,0,0-.285-.365.328.328,0,0,0-.353.282L258.906,593.1a.991.991,0,0,1-.946.854Z" transform="translate(-238.609 -463.75)" fill="#2f2e41"/>
  <ellipse id="Ellipse_45" data-name="Ellipse 45" cx="5.083" cy="5.63" rx="5.083" ry="5.63" transform="translate(21.561 51.619)" fill="#ffb8b8"/>
  <path id="Path_275" data-name="Path 275" d="M265.478,444.293l.559,13.356.2,4.859a1.059,1.059,0,0,0,.636.957l13.108,5.259a.846.846,0,0,0,.331.064.917.917,0,0,0,.693-.322,1.13,1.13,0,0,0,.272-.776l-.537-24.014a8.245,8.245,0,0,0-6.363-8.178c-.127-.021-.256-.043-.385-.062a7.05,7.05,0,0,0-6.036,2.164,9.016,9.016,0,0,0-2.481,6.692Z" transform="translate(-247.297 -370.505)" fill="#ccc"/>
  <path id="Path_276" data-name="Path 276" d="M344.564,534.611a2.195,2.195,0,0,1-1.347-1.436,2.519,2.519,0,0,1,.236-2.054l-4.445-6.546,3.836-.263,3.633,6.257a2.484,2.484,0,0,1,.574,2.909A2.017,2.017,0,0,1,344.564,534.611Z" transform="translate(-305.617 -439.057)" fill="#ffb8b8"/>
  <path id="Path_277" data-name="Path 277" d="M322.3,474.158a1.018,1.018,0,0,1-.526-.577l-6.7-17.671a2.976,2.976,0,0,1,1.38-3.74,2.5,2.5,0,0,1,3.377,1.529l6.7,17.671a1.117,1.117,0,0,1-.517,1.4l-2.973,1.382a.875.875,0,0,1-.74,0Z" transform="translate(-286.482 -383.279)" fill="#ccc"/>
  <path id="Path_278" data-name="Path 278" d="M298.07,498.246l6.432-13.64a.964.964,0,0,1,1.361-.473l9.336,5.4a1.18,1.18,0,0,1,.427,1.507l-6.432,13.64a.963.963,0,0,1-1.361.473l-9.336-5.4A1.18,1.18,0,0,1,298.07,498.246Z" transform="translate(-273.06 -407.99)" fill="#3f3d56"/>
  <path id="Path_279" data-name="Path 279" d="M283.389,500.279a2.182,2.182,0,0,0-1.374-1.4,1.923,1.923,0,0,0-1.837.382l-6.163-4.528-.01,4.256,5.854,3.647a1.952,1.952,0,0,0,2.656.462,2.447,2.447,0,0,0,.875-2.816Z" transform="translate(-254.066 -416.255)" fill="#ffb8b8"/>
  <path id="Path_280" data-name="Path 280" d="M253.122,462.169l-5.037-4.419a3.786,3.786,0,0,1-2.282-2.64,4.266,4.266,0,0,1,.663-3.58l4.573-6.638a1.954,1.954,0,0,1,2.693-.518,2.447,2.447,0,0,1,.853,2.876l-3.618,6.556,5.317,2.793a1.049,1.049,0,0,1,.515.67,1.171,1.171,0,0,1-.111.871L254.54,461.9a.97.97,0,0,1-.655.484l-.016,0A.9.9,0,0,1,253.122,462.169Z" transform="translate(-231.591 -377.188)" fill="#ccc"/>
  <path id="Path_281" data-name="Path 281" d="M278.269,379.231a.535.535,0,0,1,.049-.427.436.436,0,0,1,.335-.219.988.988,0,0,1,.719.393,2.966,2.966,0,0,0,.636.6.513.513,0,0,0,.72-.144,1.218,1.218,0,0,0-.038-.86,9.292,9.292,0,0,1-.337-2.239,4.284,4.284,0,0,1,.509-2.395,2.742,2.742,0,0,1,2.451-1.154,15.038,15.038,0,0,1,2.754.54.855.855,0,0,0,.9-.167,1.409,1.409,0,0,0,.047-1.147,8.446,8.446,0,0,0-1.09-2.877,3.837,3.837,0,0,0-2.5-1.556,5.447,5.447,0,0,0-2.786.35,7.517,7.517,0,0,0-3.66,2.824,7.247,7.247,0,0,0-1.154,4.951,6.272,6.272,0,0,0,2.046,3.863Z" transform="translate(-255.466 -318.214)" fill="#2f2e41"/>
  <path id="Path_282" data-name="Path 282" d="M570.413,680.046a10.338,10.338,0,0,1-5.457-7.217,11.407,11.407,0,0,1,1.925-9.169,11.118,11.118,0,0,0-3.735,10.507,10.165,10.165,0,0,0,6.988,8.222,8.995,8.995,0,0,0,9.695-3.495A8.751,8.751,0,0,1,570.413,680.046Z" transform="translate(-483.232 -546.465)" fill="#3f3d56"/>
</svg>
